<svg xmlns="http://www.w3.org/2000/svg" viewBox="0 0 782 180" fill="#4ade80" aria-hidden="true">
  <g transform="translate(0.79 132.17)">
    <path d="M25.98 40.33Q21.74 36.09 21.53 29.87Q21.33 23.65 23.65 16.47Q25.98 9.30 30.08 1.78Q34.18-5.74 38.55-12.78Q42.93-19.82 46.69-25.77Q50.45-31.72 52.23-35.55Q53.18-37.73 52.71-41.77Q52.23-45.80 51.20-49.97Q50.18-54.14 49.01-57.56Q47.85-60.98 47.44-61.80L45.12-59.34L19-14.22Q18.73-13.95 17.84-13.26Q16.95-12.58 15.86-11.89Q14.77-11.21 13.60-10.53Q12.44-9.84 11.89-9.57Q7.52-7.79 5.40-9.98Q3.28-12.17 3.21-17.02Q3.14-21.87 4.72-28.78Q6.29-35.68 9.23-43.34Q12.17-51 16.13-58.79Q20.10-66.58 24.81-73.21Q29.53-79.84 34.66-84.63Q39.79-89.41 44.98-91.05Q47.58-90.23 47.65-88.94Q47.71-87.64 46.28-86.06Q44.84-84.49 42.45-82.71Q40.06-80.94 37.53-79.23Q35-77.52 32.88-76.02Q30.76-74.51 30.08-73.42Q26.80-66.17 23.24-59.75Q19.69-53.32 16.88-46.89Q14.08-40.47 12.58-33.70Q11.07-26.93 11.89-19L14.22-21.46Q19.28-27.48 23.38-35.27Q27.48-43.07 30.90-50.93Q34.32-58.79 37.19-65.97Q40.06-73.14 42.52-77.93Q44.98-82.71 47.30-84.36Q49.63-86 51.88-82.71Q54.14-79.43 56.60-70.41Q59.06-61.39 61.80-45.12Q62.48-45.66 64.46-47.10Q66.45-48.54 68.70-50.04Q70.96-51.54 73.01-52.84Q75.06-54.14 75.88-54.55Q76.56-54.82 78.34-54.82Q80.12-54.82 80.66-54.55Q80.12-52.09 77.59-48.88Q75.06-45.66 72.12-42.79Q69.18-39.92 66.72-37.80Q64.26-35.68 64.12-35.55Q64.12-34.18 64.05-31.45Q63.98-28.71 63.78-25.16Q63.57-21.60 63.30-17.77Q63.03-13.95 62.75-10.39Q62.48-6.84 62.21-4.10L61.80 0Q61.52 1.78 59.81 6.49Q58.11 11.21 55.51 17.09Q52.91 22.97 49.49 28.85Q46.07 34.73 42.25 38.62Q38.42 42.52 34.25 43.48Q30.08 44.43 25.98 40.33M33.22 16.68Q33.09 17.77 33.02 20.44Q32.95 23.11 32.95 26.11Q32.95 29.12 33.02 31.86Q33.09 34.59 33.22 35.55Q40.47 32.54 45.25 25.43Q50.04 18.32 52.50 9.64Q54.96 0.96 55.44-8.07Q55.92-17.09 54.55-23.79Q50.59-20.51 47.03-15.65Q43.48-10.80 40.61-5.26Q37.73 0.27 35.82 6.02Q33.91 11.76 33.22 16.68M102.27-2.32Q96.52-6.84 93.17-12.92Q89.82-19 88.05-25.98Q87.23-25.29 85.59-24.47Q83.95-23.65 82.24-23.11Q80.53-22.56 78.89-22.35Q77.25-22.15 76.49-22.70Q75.74-23.24 76.08-24.54Q76.43-25.84 78.61-28.44Q78.89-28.85 80.32-30.21Q81.76-31.58 83.40-33.15Q85.04-34.73 86.41-36.16Q87.77-37.60 88.05-38.01Q89.55-41.43 89.89-45.53Q90.23-49.63 90.30-54.07Q90.37-58.52 90.78-62.89Q91.19-67.27 92.83-71.09Q93.79-73.28 96.46-76.49Q99.12-79.71 102.47-82.71Q105.82-85.72 109.31-88.12Q112.79-90.51 115.32-91.05Q117.85-91.60 119.01-89.82Q120.18-88.05 118.95-82.99Q117.44-76.97 114.37-71.30Q111.29-65.62 108.01-60.09Q104.73-54.55 101.79-49.08Q98.85-43.61 97.62-38.01Q96.93-35 96.93-30.69Q96.93-26.39 97.89-22.15Q98.85-17.91 101.04-14.42Q103.22-10.94 107.05-9.57Q111.43-7.93 115.80-8.75Q120.18-9.57 124.35-11.89Q128.52-14.22 132.34-17.71Q136.17-21.19 139.45-24.88Q142.73-28.57 145.33-32.06Q147.93-35.55 149.71-38.01L152.03-35.55Q152.99-34.73 150.87-30.90Q148.75-27.07 144.72-22.22Q140.68-17.36 135.21-12.30Q129.75-7.25 123.94-3.83Q118.13-0.41 112.45 0.41Q106.78 1.23 102.27-2.32M97.62-61.80Q97.48-61.11 97.41-59.40Q97.34-57.70 97.34-55.78Q97.34-53.87 97.41-52.23Q97.48-50.59 97.62-49.90Q101.99-57.42 105.82-65.90Q109.65-74.37 111.84-82.99Q108.69-81.89 106.16-79.64Q103.63-77.38 101.86-74.44Q100.08-71.50 99.05-68.22Q98.03-64.94 97.62-61.80M184.57-9.57Q181.56-14.63 179.92-20.99Q178.28-27.34 177.60-34.04Q176.91-40.74 176.98-47.30Q177.05-53.87 177.32-59.34Q175.41-59.88 172.95-59.06Q170.49-58.24 167.75-56.94Q165.02-55.64 162.15-54.14Q159.28-52.64 156.82-51.95Q154.36-51.27 152.30-51.68Q150.25-52.09 149.02-54.55Q147.79-56.87 149.23-58.24Q150.66-59.61 153.47-60.36Q156.27-61.11 159.96-61.46Q163.65-61.80 166.93-62.34Q170.21-62.89 172.54-63.78Q174.86-64.67 175-66.45L179.79-118.54Q179.92-119.77 181.08-120.45Q182.25-121.13 183.54-121.13Q184.84-121.13 185.87-120.52Q186.89-119.90 186.89-118.54L186.89-73.55Q188.81-73.14 190.59-73.62Q192.36-74.10 194.14-74.79Q195.92-75.47 197.63-75.88Q199.34-76.29 201.25-75.88Q202.07-74.37 200.98-73.08Q199.88-71.78 198.79-71.09L196.33-69.59Q194.69-68.63 192.84-67.47Q191-66.31 189.29-65.35Q187.58-64.39 186.89-64.12Q186.76-62.21 186.69-57.49Q186.62-52.77 186.62-47.44Q186.62-42.11 186.69-37.39Q186.76-32.68 186.89-30.76Q187.44-24.34 189.36-19Q191.27-13.67 194.55-10.66Q197.83-7.66 202.41-7.66Q206.99-7.66 213.14-11.89Q214.10-8.75 213.01-6.29Q211.91-3.83 209.45-2.39Q206.99-0.96 203.57-0.55Q200.16-0.14 196.67-0.96Q193.18-1.78 189.90-3.90Q186.62-6.02 184.57-9.57M282.19-2.32Q279.45-8.07 279.25-13.95Q279.04-19.82 279.86-25.98Q280-27.89 280.55-31.72Q281.09-35.55 281.78-40.20Q282.46-44.84 283.28-50.04Q284.10-55.23 284.79-59.88Q285.47-64.53 286.08-68.15Q286.70-71.78 286.97-73.55Q288.07-79.30 289.37-83.33Q290.66-87.36 292.92-89.55Q295.18-91.74 298.80-91.87Q302.42-92.01 308.16-90.10Q308.85-89.96 309.67-89.07Q310.49-88.18 310.63-87.77Q310.90-86 311.65-82.30Q312.40-78.61 313.36-73.90Q314.32-69.18 315.34-64.05Q316.37-58.93 317.32-54.21Q318.28-49.49 319.03-45.80Q319.79-42.11 320.20-40.33Q322.25-30.62 325.25-26.87Q328.26-23.11 331.68-22.97Q335.10-22.83 338.72-25.22Q342.34-27.62 345.90-30.28Q349.45-32.95 352.60-34.86Q355.74-36.78 358.07-35.55Q358.07-32.95 356.84-30.49Q355.61-28.03 353.90-25.91Q352.19-23.79 350.14-22.01Q348.09-20.23 346.31-19Q338.65-13.95 333.53-13.67Q328.40-13.40 324.84-16Q321.29-18.59 319.10-23.11Q316.91-27.62 315.21-32.27Q313.50-36.91 311.92-40.54Q310.35-44.16 308.16-45.12Q307.75-43.34 306.46-38.96Q305.16-34.59 303.65-29.67Q302.15-24.75 300.78-20.37Q299.41-16 298.87-14.22Q298.59-13.54 297.71-11.62Q296.82-9.71 295.45-7.45Q294.08-5.20 292.37-3.08Q290.66-0.96 288.89 0.21Q287.11 1.37 285.33 0.96Q283.55 0.55 282.19-2.32M289.30-42.66Q289.02-41.02 288.96-36.64Q288.89-32.27 288.89-27.34Q288.89-22.42 288.96-18.05Q289.02-13.67 289.30-11.89Q294.08-19.14 297.91-28.78Q301.74-38.42 303.72-48.74Q305.70-59.06 305.29-69.25Q304.88-79.43 301.19-87.77Q298.87-83.54 296.82-77.11Q294.77-70.68 293.26-64.05Q291.76-57.42 290.73-51.61Q289.71-45.80 289.30-42.66M464.16-7.11Q462.25-10.39 460.67-16.20Q459.10-22.01 457.87-28.16Q456.64-34.32 455.82-39.65Q455-44.84 454.73-47.30Q454.32-44.84 453.09-40.06Q451.86-35.27 449.80-29.74Q447.75-24.20 445.02-18.66Q442.29-13.12 438.94-9.16Q435.59-5.20 431.76-3.69Q427.93-2.19 423.83-4.79Q423.55-4.92 423.14-5.81Q422.73-6.70 422.39-7.86Q422.05-9.02 421.78-10.12Q421.50-11.21 421.50-11.89L421.50-68.91Q419.45-72.73 419.18-75.26Q418.91-77.79 419.73-79.16Q420.55-80.53 421.98-80.87Q423.42-81.21 424.92-80.73Q426.43-80.25 427.52-79.02Q428.61-77.79 428.61-75.88L428.61-19L431.07-11.89Q437.77-16.54 441.88-23.24Q445.98-29.94 448.16-37.60Q450.35-45.25 451.17-53.32Q451.99-61.39 452.27-68.91Q452.95-69.04 454.11-69.18Q455.27-69.32 456.37-69.11Q457.46-68.91 458.35-68.29Q459.24-67.68 459.51-66.45L468.95-16.68L473.73-7.11Q476.88-9.30 478.52-14.77Q480.16-20.23 480.84-27.75Q481.52-35.27 481.59-44.02Q481.66-52.77 481.59-61.52Q481.52-70.27 481.73-78.20Q481.93-86.13 483.03-91.87Q484.12-97.62 486.38-100.49Q488.63-103.36 492.60-101.99Q495.33-101.17 495.20-98.92Q495.06-96.66 493.76-94.27Q492.46-91.87 490.89-89.89Q489.32-87.91 489.18-87.77L489.18-23.65Q489.18-20.92 488.02-17.36Q486.86-13.81 484.94-10.46Q483.03-7.11 480.57-4.37Q478.11-1.64 475.30-0.75Q472.50 0.14 469.63-1.16Q466.76-2.46 464.16-7.11M505.72-2.32Q502.99-8.07 502.78-13.95Q502.58-19.82 503.40-25.98Q503.54-27.89 504.08-31.72Q504.63-35.55 505.31-40.20Q506-44.84 506.82-50.04Q507.64-55.23 508.32-59.88Q509-64.53 509.62-68.15Q510.23-71.78 510.51-73.55Q511.60-79.30 512.90-83.33Q514.20-87.36 516.46-89.55Q518.71-91.74 522.33-91.87Q525.96-92.01 531.70-90.10Q532.38-89.96 533.20-89.07Q534.02-88.18 534.16-87.77Q534.43-86 535.19-82.30Q535.94-78.61 536.89-73.90Q537.85-69.18 538.88-64.05Q539.90-58.93 540.86-54.21Q541.82-49.49 542.57-45.80Q543.32-42.11 543.73-40.33Q545.78-30.62 548.79-26.87Q551.80-23.11 555.21-22.97Q558.63-22.83 562.26-25.22Q565.88-27.62 569.43-30.28Q572.99-32.95 576.13-34.86Q579.28-36.78 581.60-35.55Q581.60-32.95 580.37-30.49Q579.14-28.03 577.43-25.91Q575.72-23.79 573.67-22.01Q571.62-20.23 569.84-19Q562.19-13.95 557.06-13.67Q551.93-13.40 548.38-16Q544.82-18.59 542.64-23.11Q540.45-27.62 538.74-32.27Q537.03-36.91 535.46-40.54Q533.89-44.16 531.70-45.12Q531.29-43.34 529.99-38.96Q528.69-34.59 527.19-29.67Q525.68-24.75 524.32-20.37Q522.95-16 522.40-14.22Q522.13-13.54 521.24-11.62Q520.35-9.71 518.98-7.45Q517.62-5.20 515.91-3.08Q514.20-0.96 512.42 0.21Q510.64 1.37 508.87 0.96Q507.09 0.55 505.72-2.32M512.83-42.66Q512.56-41.02 512.49-36.64Q512.42-32.27 512.42-27.34Q512.42-22.42 512.49-18.05Q512.56-13.67 512.83-11.89Q517.62-19.14 521.45-28.78Q525.27-38.42 527.26-48.74Q529.24-59.06 528.83-69.25Q528.42-79.43 524.73-87.77Q522.40-83.54 520.35-77.11Q518.30-70.68 516.80-64.05Q515.29-57.42 514.27-51.61Q513.24-45.80 512.83-42.66M579.82-2.32Q576.82-4.24 575.38-8.27Q573.95-12.30 573.33-16.75Q572.71-21.19 572.71-25.02L572.71-30.76Q572.71-32.27 572.85-36.85Q572.99-41.43 573.26-47.51Q573.54-53.59 573.81-60.50Q574.08-67.40 574.36-73.49Q574.63-79.57 574.83-84.08Q575.04-88.59 575.04-90.10Q575.04-92.15 575.11-97.21Q575.18-102.27 575.18-107.94Q575.18-113.61 575.11-118.67Q575.04-123.73 575.04-125.78Q577.09-127.29 578.59-127.83Q579.96-128.38 581.05-128.04Q582.15-127.70 582.15-125.78L582.15-14.22Q582.15-13.26 582.76-11.96Q583.38-10.66 584.34-9.71Q585.29-8.75 586.59-8.54Q587.89-8.34 589.26-9.57L605.80-23.65Q606.48-20.51 605.66-17.09Q604.84-13.67 603-10.66Q601.15-7.66 598.42-5.20Q595.68-2.73 592.54-1.44Q589.39-0.14 586.11-0.21Q582.83-0.27 579.82-2.32M613.87-2.32Q610.86-4.24 609.42-8.27Q607.99-12.30 607.37-16.75Q606.76-21.19 606.76-25.02L606.76-30.76Q606.76-32.27 606.89-36.85Q607.03-41.43 607.30-47.51Q607.58-53.59 607.85-60.50Q608.13-67.40 608.40-73.49Q608.67-79.57 608.88-84.08Q609.08-88.59 609.08-90.10Q609.08-92.15 609.15-97.21Q609.22-102.27 609.22-107.94Q609.22-113.61 609.15-118.67Q609.08-123.73 609.08-125.78Q611.13-127.29 612.64-127.83Q614-128.38 615.10-128.04Q616.19-127.70 616.19-125.78L616.19-14.22Q616.19-13.26 616.81-11.96Q617.42-10.66 618.38-9.71Q619.34-8.75 620.63-8.54Q621.93-8.34 623.30-9.57L639.84-23.65Q640.53-20.51 639.71-17.09Q638.89-13.67 637.04-10.66Q635.20-7.66 632.46-5.20Q629.73-2.73 626.58-1.44Q623.44-0.14 620.16-0.21Q616.88-0.27 613.87-2.32M665.68-2.32Q659.94-6.84 656.59-12.92Q653.24-19 651.46-25.98Q650.64-25.29 649-24.47Q647.36-23.65 645.65-23.11Q643.95-22.56 642.30-22.35Q640.66-22.15 639.91-22.70Q639.16-23.24 639.50-24.54Q639.84-25.84 642.03-28.44Q642.30-28.85 643.74-30.21Q645.18-31.58 646.82-33.15Q648.46-34.73 649.82-36.16Q651.19-37.60 651.46-38.01Q652.97-41.43 653.31-45.53Q653.65-49.63 653.72-54.07Q653.79-58.52 654.20-62.89Q654.61-67.27 656.25-71.09Q657.21-73.28 659.87-76.49Q662.54-79.71 665.89-82.71Q669.24-85.72 672.72-88.12Q676.21-90.51 678.74-91.05Q681.27-91.60 682.43-89.82Q683.59-88.05 682.36-82.99Q680.86-76.97 677.78-71.30Q674.71-65.62 671.43-60.09Q668.14-54.55 665.21-49.08Q662.27-43.61 661.04-38.01Q660.35-35 660.35-30.69Q660.35-26.39 661.31-22.15Q662.27-17.91 664.45-14.42Q666.64-10.94 670.47-9.57Q674.84-7.93 679.22-8.75Q683.59-9.57 687.76-11.89Q691.93-14.22 695.76-17.71Q699.59-21.19 702.87-24.88Q706.15-28.57 708.75-32.06Q711.35-35.55 713.13-38.01L715.45-35.55Q716.41-34.73 714.29-30.90Q712.17-27.07 708.13-22.22Q704.10-17.36 698.63-12.30Q693.16-7.25 687.35-3.83Q681.54-0.41 675.87 0.41Q670.20 1.23 665.68-2.32M661.04-61.80Q660.90-61.11 660.83-59.40Q660.76-57.70 660.76-55.78Q660.76-53.87 660.83-52.23Q660.90-50.59 661.04-49.90Q665.41-57.42 669.24-65.90Q673.07-74.37 675.25-82.99Q672.11-81.89 669.58-79.64Q667.05-77.38 665.27-74.44Q663.50-71.50 662.47-68.22Q661.45-64.94 661.04-61.80M747.99-9.57Q744.98-14.63 743.34-20.99Q741.70-27.34 741.02-34.04Q740.33-40.74 740.40-47.30Q740.47-53.87 740.74-59.34Q738.83-59.88 736.37-59.06Q733.91-58.24 731.17-56.94Q728.44-55.64 725.57-54.14Q722.70-52.64 720.23-51.95Q717.77-51.27 715.72-51.68Q713.67-52.09 712.44-54.55Q711.21-56.87 712.65-58.24Q714.08-59.61 716.88-60.36Q719.69-61.11 723.38-61.46Q727.07-61.80 730.35-62.34Q733.63-62.89 735.96-63.78Q738.28-64.67 738.42-66.45L743.20-118.54Q743.34-119.77 744.50-120.45Q745.66-121.13 746.96-121.13Q748.26-121.13 749.29-120.52Q750.31-119.90 750.31-118.54L750.31-73.55Q752.23-73.14 754-73.62Q755.78-74.10 757.56-74.79Q759.34-75.47 761.04-75.88Q762.75-76.29 764.67-75.88Q765.49-74.37 764.39-73.08Q763.30-71.78 762.21-71.09L759.75-69.59Q758.11-68.63 756.26-67.47Q754.41-66.31 752.71-65.35Q751-64.39 750.31-64.12Q750.18-62.21 750.11-57.49Q750.04-52.77 750.04-47.44Q750.04-42.11 750.11-37.39Q750.18-32.68 750.31-30.76Q750.86-24.34 752.77-19Q754.69-13.67 757.97-10.66Q761.25-7.66 765.83-7.66Q770.41-7.66 776.56-11.89Q777.52-8.75 776.43-6.29Q775.33-3.83 772.87-2.39Q770.41-0.96 766.99-0.55Q763.57-0.14 760.09-0.96Q756.60-1.78 753.32-3.90Q750.04-6.02 747.99-9.57" />
  </g>
</svg>
